<svg id="Layer_1" data-name="Layer 1" xmlns="http://www.w3.org/2000/svg" viewBox="0 0 40 40" fill="#f90" fill-opacity="0.2">
    <title>pattern_1</title>
    <polygon points="0 28 6 22 6 28 0 28"/>
    <polygon points="0 12 6 12 6 18 0 12"/>
    <polygon points="18 6 12 6 12 0 18 6"/>
    <polygon points="40 12 34 18 34 12 40 12"/>
    <path d="M23,11H17l-6,6v6l6,6h6l6-6V17Zm0,12H17V17h6Z"/>
    <polygon points="12 34 18 34 12 40 12 34"/>
    <polygon points="34 22 40 28 34 28 34 22"/>
    <polygon points="22 6 28 0 28 6 22 6"/>
    <polygon points="22 34 28 34 28 40 22 34"/>
    <rect x="6" y="6" width="6" height="6"/>
    <rect x="28" y="6" width="6" height="6"/>
    <rect x="6" y="28" width="6" height="6"/>
    <rect x="28" y="28" width="6" height="6"/>
    <polygon points="34 0 40 0 40 6 34 0"/>
    <polygon points="40 34.29 34.29 40 40 40 40 34.29"/>
    <polygon points="0 34.29 5.71 40 0 40 0 34.29"/>
    <polygon points="6 0 0 6 0 0 6 0"/>
</svg>